<?xml version="1.0" encoding="UTF-8" standalone="no"?>
<svg
   xmlns:dc="http://purl.org/dc/elements/1.1/"
   xmlns:cc="http://creativecommons.org/ns#"
   xmlns:rdf="http://www.w3.org/1999/02/22-rdf-syntax-ns#"
   xmlns:svg="http://www.w3.org/2000/svg"
   xmlns="http://www.w3.org/2000/svg"
   xmlns:sodipodi="http://sodipodi.sourceforge.net/DTD/sodipodi-0.dtd"
   xmlns:inkscape="http://www.inkscape.org/namespaces/inkscape"
   width="24"
   height="24"
   viewBox="0 0 24 24"
   version="1.1"
   id="svg34"
   sodipodi:docname="lightbulb.svg"
   inkscape:version="1.0.2 (e86c870879, 2021-01-15, custom)">
  <metadata
     id="metadata40">
    <rdf:RDF>
      <cc:Work
         rdf:about="">
        <dc:format>image/svg+xml</dc:format>
        <dc:type
           rdf:resource="http://purl.org/dc/dcmitype/StillImage" />
        <dc:title></dc:title>
      </cc:Work>
    </rdf:RDF>
  </metadata>
  <defs
     id="defs38" />
  <sodipodi:namedview
     pagecolor="#ffffff"
     bordercolor="#666666"
     borderopacity="1"
     objecttolerance="10"
     gridtolerance="10"
     guidetolerance="10"
     inkscape:pageopacity="0"
     inkscape:pageshadow="2"
     inkscape:window-width="2560"
     inkscape:window-height="1387"
     id="namedview36"
     showgrid="false"
     inkscape:zoom="42"
     inkscape:cx="12"
     inkscape:cy="12"
     inkscape:window-x="-8"
     inkscape:window-y="-8"
     inkscape:window-maximized="1"
     inkscape:current-layer="svg34" />
  <path
     fill-rule="evenodd"
     d="M14,17.662434 C13.3675324,17.8869131 12.6993441,18 12,18 C11.3006559,18 10.6324676,17.8869131 10,17.662434 L10,18 C10,19.1045695 10.8954305,20 12,20 C13.1045695,20 14,19.1045695 14,18 L14,17.662434 Z M9.96119734,15.4422586 C10.5843526,15.8162985 11.257995,16 12,16 C12.7439455,16 13.4191703,15.8153364 14.0436906,15.4393201 C14.0947002,15.1627057 14.1895453,14.8913302 14.323842,14.6190958 C14.4816975,14.2991048 14.6824274,13.9942592 14.9771627,13.6021505 C15.0406642,13.5176695 15.5469738,12.8634907 15.6944183,12.6630153 C16.5830391,11.4547873 17,10.4279051 17,9 C17,6.23857625 14.7614237,4 12,4 C9.23857625,4 7,6.23857625 7,9 C7,10.3785497 7.40666099,11.3566146 8.30369772,12.5682122 C8.43271675,12.7424739 8.87702522,13.3197125 8.91347694,13.3679357 C9.1647433,13.7003444 9.34250335,13.9566032 9.4956726,14.2195713 C9.73421839,14.6291177 9.89259264,15.0283115 9.96119734,15.4422586 Z M16,15.915 L16,18 C16,20.209139 14.209139,22 12,22 C9.790861,22 8,20.209139 8,18 L8,15.915 C8,15.7197328 7.93082686,15.5066658 7.76746076,15.2261913 C7.66249697,15.0459846 7.52517799,14.8480256 7.31800344,14.5739474 C7.29171438,14.5391688 6.83869892,13.9506182 6.69630228,13.7582878 C5.56644227,12.2322235 5,10.8698669 5,9 C5,5.13400675 8.13400675,2 12,2 C15.8659932,2 19,5.13400675 19,9 C19,10.9107615 18.4258248,12.3248276 17.3055817,13.8479847 C17.1403863,14.0725954 16.6252317,14.7382025 16.5758825,14.8038555 C16.3495301,15.1049893 16.20892,15.3185318 16.1174685,15.5039143 C16.034707,15.6716812 16,15.8013203 16,15.915 Z"
     id="path32"
     style="fill:#ffffff" />
</svg>
