<?xml version="1.0" encoding="UTF-8" standalone="no"?>
<svg
   xmlns:dc="http://purl.org/dc/elements/1.1/"
   xmlns:cc="http://creativecommons.org/ns#"
   xmlns:rdf="http://www.w3.org/1999/02/22-rdf-syntax-ns#"
   xmlns:svg="http://www.w3.org/2000/svg"
   xmlns="http://www.w3.org/2000/svg"
   xmlns:sodipodi="http://sodipodi.sourceforge.net/DTD/sodipodi-0.dtd"
   xmlns:inkscape="http://www.inkscape.org/namespaces/inkscape"
   width="24"
   height="24"
   viewBox="0 0 24 24"
   version="1.1"
   id="svg6"
   sodipodi:docname="download.svg"
   inkscape:version="1.0.2 (e86c870879, 2021-01-15, custom)">
  <metadata
     id="metadata12">
    <rdf:RDF>
      <cc:Work
         rdf:about="">
        <dc:format>image/svg+xml</dc:format>
        <dc:type
           rdf:resource="http://purl.org/dc/dcmitype/StillImage" />
      </cc:Work>
    </rdf:RDF>
  </metadata>
  <defs
     id="defs10" />
  <sodipodi:namedview
     pagecolor="#ffffff"
     bordercolor="#666666"
     borderopacity="1"
     objecttolerance="10"
     gridtolerance="10"
     guidetolerance="10"
     inkscape:pageopacity="0"
     inkscape:pageshadow="2"
     inkscape:window-width="2560"
     inkscape:window-height="1377"
     id="namedview8"
     showgrid="false"
     inkscape:zoom="42"
     inkscape:cx="12"
     inkscape:cy="12"
     inkscape:window-x="-8"
     inkscape:window-y="-8"
     inkscape:window-maximized="1"
     inkscape:current-layer="svg6" />
  <path
     fill="#494c4e"
     d="M24 11c0 2.76-2.24 5-5 5h-3c-.55 0-1-.45-1-1s.45-1 1-1h3c1.65 0 3-1.35 3-3s-1.35-3-3-3c-.27 0-.53.04-.78.1-.01 0-.23.04-.28.04-.5 0-.92-.37-.99-.86-.04-.26-.1-.52-.17-.76C16.15 4.48 14.25 3 12 3S7.85 4.48 7.22 6.52c-.07.25-.14.51-.18.77-.07.48-.48.85-.98.85-.04 0-.25-.02-.27-.03C5.54 8.04 5.27 8 5 8c-1.65 0-3 1.35-3 3s1.35 3 3 3h3c.55 0 1 .45 1 1s-.45 1-1 1H5c-2.76 0-5-2.24-5-5s2.24-5 5-5c.1 0 .2 0 .29.02C6.14 3.12 8.82 1 12 1s5.86 2.12 6.71 5.02C18.8 6 18.9 6 19 6c2.76 0 5 2.24 5 5z"
     id="path2"
     style="fill:#ffffff" />
  <path
     fill="#494c4e"
     d="M16.602 20.8l-4.002 3c-.18.13-.39.2-.6.2s-.42-.07-.6-.2l-4.002-3c-.34-.26-.48-.71-.35-1.12.14-.4.52-.68.95-.68H11V9c0-.55.45-1 1-1s1 .45 1 1v10h3.002c.43 0 .81.28.95.68.13.41-.01.86-.35 1.12z"
     id="path4"
     style="fill:#ffffff" />
</svg>
