<?xml version="1.0" encoding="UTF-8" standalone="no"?>
<svg
   xmlns:dc="http://purl.org/dc/elements/1.1/"
   xmlns:cc="http://creativecommons.org/ns#"
   xmlns:rdf="http://www.w3.org/1999/02/22-rdf-syntax-ns#"
   xmlns:svg="http://www.w3.org/2000/svg"
   xmlns="http://www.w3.org/2000/svg"
   xmlns:sodipodi="http://sodipodi.sourceforge.net/DTD/sodipodi-0.dtd"
   xmlns:inkscape="http://www.inkscape.org/namespaces/inkscape"
   version="1.1"
   id="Layer_1"
   x="0px"
   y="0px"
   width="52"
   height="38"
   viewBox="0 0 52 38"
   enable-background="new 0 0 52 52"
   xml:space="preserve"
   sodipodi:docname="keyboard.svg"
   inkscape:version="1.0.2 (e86c870879, 2021-01-15, custom)"><metadata
   id="metadata41"><rdf:RDF><cc:Work
       rdf:about=""><dc:format>image/svg+xml</dc:format><dc:type
         rdf:resource="http://purl.org/dc/dcmitype/StillImage" /><dc:title></dc:title></cc:Work></rdf:RDF></metadata><defs
   id="defs39" /><sodipodi:namedview
   pagecolor="#ffffff"
   bordercolor="#666666"
   borderopacity="1"
   objecttolerance="10"
   gridtolerance="10"
   guidetolerance="10"
   inkscape:pageopacity="0"
   inkscape:pageshadow="2"
   inkscape:window-width="2560"
   inkscape:window-height="1387"
   id="namedview37"
   showgrid="false"
   inkscape:pagecheckerboard="true"
   inkscape:zoom="19.384615"
   inkscape:cx="28.269841"
   inkscape:cy="23.817181"
   inkscape:window-x="-8"
   inkscape:window-y="-8"
   inkscape:window-maximized="1"
   inkscape:current-layer="g136" />















<g
   id="g136"><path
     fill="#ffffff"
     d="m 48,34.066 c 1.1,0 2,-0.9 2,-2 v -26 c 0,-1.1 -0.9,-2 -2,-2 H 4 c -1.1,0 -2,0.9 -2,2 v 26 c 0,1.1 0.9,2 2,2 z m -42,-4 v -22 h 40 v 22 z"
     id="path2"
     clip-path="none" /><path
     fill="#ffffff"
     d="m 13.665,13.398 c 0,0.8 -0.7,1.5 -1.5,1.5 h -0.998 c -0.8,0 -1.5,-0.7 -1.5,-1.5 V 12.4 c 0,-0.8 0.7,-1.5 1.5,-1.5 h 0.998 c 0.8,0 1.5,0.7 1.5,1.5 z"
     id="path4"
     clip-path="none" /><path
     fill="#ffffff"
     d="m 19.402,12.4 c 0,-0.801 -0.7,-1.5 -1.5,-1.5 h -0.998 c -0.8,0 -1.5,0.699 -1.5,1.5 v 0.998 c 0,0.799 0.7,1.5 1.5,1.5 h 0.998 c 0.8,0 1.5,-0.701 1.5,-1.5 z"
     id="path6"
     clip-path="none" /><path
     fill="#ffffff"
     d="m 30.878,13.398 c 0,0.8 -0.698,1.5 -1.5,1.5 H 28.38 c -0.799,0 -1.5,-0.7 -1.5,-1.5 V 12.4 c 0,-0.8 0.701,-1.5 1.5,-1.5 h 0.998 c 0.802,0 1.5,0.7 1.5,1.5 z"
     id="path8"
     clip-path="none" /><path
     fill="#ffffff"
     d="m 25.14,13.398 c 0,0.8 -0.699,1.5 -1.5,1.5 h -0.998 c -0.799,0 -1.5,-0.7 -1.5,-1.5 V 12.4 c 0,-0.8 0.701,-1.5 1.5,-1.5 h 0.998 c 0.801,0 1.5,0.7 1.5,1.5 z"
     id="path10"
     clip-path="none" /><path
     fill="#ffffff"
     d="m 42.354,12.4 c 0,-0.801 -0.699,-1.5 -1.5,-1.5 h -0.998 c -0.799,0 -1.5,0.699 -1.5,1.5 v 0.998 c 0,0.799 0.701,1.5 1.5,1.5 h 0.998 c 0.801,0 1.5,-0.701 1.5,-1.5 z"
     id="path12"
     clip-path="none" /><path
     fill="#ffffff"
     d="m 36.615,12.4 c 0,-0.801 -0.699,-1.5 -1.5,-1.5 h -0.998 c -0.799,0 -1.5,0.699 -1.5,1.5 v 0.998 c 0,0.799 0.701,1.5 1.5,1.5 h 0.998 c 0.801,0 1.5,-0.701 1.5,-1.5 z"
     id="path14"
     clip-path="none" /><path
     fill="#ffffff"
     d="m 13.665,19.402 c 0,0.8 -0.7,1.5 -1.5,1.5 h -0.998 c -0.8,0 -1.5,-0.7 -1.5,-1.5 v -0.998 c 0,-0.8 0.7,-1.5 1.5,-1.5 h 0.998 c 0.8,0 1.5,0.7 1.5,1.5 z"
     id="path16"
     clip-path="none" /><path
     fill="#ffffff"
     d="m 19.402,18.404 c 0,-0.801 -0.7,-1.5 -1.5,-1.5 h -0.998 c -0.8,0 -1.5,0.699 -1.5,1.5 v 0.998 c 0,0.799 0.7,1.5 1.5,1.5 h 0.998 c 0.8,0 1.5,-0.701 1.5,-1.5 z"
     id="path18"
     clip-path="none" /><path
     fill="#ffffff"
     d="m 30.878,19.402 c 0,0.8 -0.698,1.5 -1.5,1.5 H 28.38 c -0.799,0 -1.5,-0.7 -1.5,-1.5 v -0.998 c 0,-0.8 0.701,-1.5 1.5,-1.5 h 0.998 c 0.802,0 1.5,0.7 1.5,1.5 z"
     id="path20"
     clip-path="none" /><path
     fill="#ffffff"
     d="m 25.14,19.402 c 0,0.8 -0.699,1.5 -1.5,1.5 h -0.998 c -0.799,0 -1.5,-0.7 -1.5,-1.5 v -0.998 c 0,-0.8 0.701,-1.5 1.5,-1.5 h 0.998 c 0.801,0 1.5,0.7 1.5,1.5 z"
     id="path22"
     clip-path="none" /><path
     fill="#ffffff"
     d="m 42.354,18.404 c 0,-0.801 -0.699,-1.5 -1.5,-1.5 h -0.998 c -0.799,0 -1.5,0.699 -1.5,1.5 v 0.998 c 0,0.799 0.701,1.5 1.5,1.5 h 0.998 c 0.801,0 1.5,-0.701 1.5,-1.5 z"
     id="path24"
     clip-path="none" /><path
     fill="#ffffff"
     d="m 36.615,18.404 c 0,-0.801 -0.699,-1.5 -1.5,-1.5 h -0.998 c -0.799,0 -1.5,0.699 -1.5,1.5 v 0.998 c 0,0.799 0.701,1.5 1.5,1.5 h 0.998 c 0.801,0 1.5,-0.701 1.5,-1.5 z"
     id="path26"
     clip-path="none" /><path
     fill="#ffffff"
     d="m 13.665,25.408 c 0,0.801 -0.7,1.5 -1.5,1.5 h -0.998 c -0.8,0 -1.5,-0.7 -1.5,-1.5 V 24.41 c 0,-0.8 0.7,-1.5 1.5,-1.5 h 0.998 c 0.8,0 1.5,0.7 1.5,1.5 z"
     id="path28"
     clip-path="none" /><path
     fill="#ffffff"
     d="m 36.615,24.41 c 0,-0.801 -0.7,-1.5 -1.5,-1.5 H 16.904 c -0.8,0 -1.5,0.699 -1.5,1.5 v 0.998 c 0,0.8 0.7,1.5 1.5,1.5 h 18.211 c 0.8,0 1.5,-0.701 1.5,-1.5 z"
     id="path30"
     clip-path="none" /><path
     fill="#ffffff"
     d="m 42.354,24.41 c 0,-0.801 -0.699,-1.5 -1.5,-1.5 h -0.998 c -0.799,0 -1.5,0.699 -1.5,1.5 v 0.998 c 0,0.8 0.701,1.5 1.5,1.5 h 0.998 c 0.801,0 1.5,-0.701 1.5,-1.5 z"
     id="path32"
     clip-path="none" /></g>

</svg>
